ffmpeg started on 2016-12-08 at 14:06:09
Report written to "Output/x264/results/ffmpeg/crowd_run_2160p50veryslow3000k.log"
Command line:
Tools/ffmpeg/ffmpeg -benchmark -y -i Input/y4m/crowd_run_2160p50.y4m -c:v libx264 -preset veryslow -b:v 3000k -an Output/x264/encoded/crowd_run_2160p50veryslow3000k.mkv
ffmpeg version N-82227-gdb23fde Copyright (c) 2000-2016 the FFmpeg developers
  built with gcc 5.4.0 (Ubuntu 5.4.0-6ubuntu1~16.04.2) 20160609
  configuration: --prefix=/home/jaroslav/ffmpeg_build --pkg-config-flags=--static --extra-cflags=-I/home/jaroslav/ffmpeg_build/include --extra-ldflags=-L/home/jaroslav/ffmpeg_build/lib --bindir=/home/jaroslav/bin --enable-gpl --enable-libass --enable-libfdk-aac --enable-libfreetype --enable-libmp3lame --enable-libopus --enable-libtheora --enable-libvorbis --enable-libvpx --enable-libx264 --enable-libx265 --enable-nvenc --enable-libmfx --enable-libxvid --enable-libgsm --enable-libopencore-amrnb --enable-version3 --enable-nonfree
  libavutil      55. 35.100 / 55. 35.100
  libavcodec     57. 66.101 / 57. 66.101
  libavformat    57. 57.100 / 57. 57.100
  libavdevice    57.  2.100 / 57.  2.100
  libavfilter     6. 66.100 /  6. 66.100
  libswscale      4.  3.100 /  4.  3.100
  libswresample   2.  4.100 /  2.  4.100
  libpostproc    54.  2.100 / 54.  2.100
Input #0, yuv4mpegpipe, from 'Input/y4m/crowd_run_2160p50.y4m':
  Duration: 00:00:10.00, start: 0.000000, bitrate: 4976642 kb/s
    Stream #0:0: Video: rawvideo (I420 / 0x30323449), yuv420p(progressive), 3840x2160, SAR 1:1 DAR 16:9, 50 fps, 50 tbr, 50 tbn, 50 tbc
[libx264 @ 0x2e601c0] using SAR=1/1
[libx264 @ 0x2e601c0] DPB size (16 frames, 518400 mbs) > level limit (5 frames, 184320 mbs)
[libx264 @ 0x2e601c0] using cpu capabilities: MMX2 SSE2Fast SSSE3 SSE4.2 AVX FMA3 AVX2 LZCNT BMI2
[libx264 @ 0x2e601c0] profile High, level 5.2
[libx264 @ 0x2e601c0] 264 - core 148 - H.264/MPEG-4 AVC codec - Copyleft 2003-2016 - http://www.videolan.org/x264.html - options: cabac=1 ref=16 deblock=1:0:0 analyse=0x3:0x133 me=umh subme=10 psy=1 psy_rd=1.00:0.00 mixed_ref=1 me_range=24 chroma_me=1 trellis=2 8x8dct=1 cqm=0 deadzone=21,11 fast_pskip=1 chroma_qp_offset=-2 threads=6 lookahead_threads=1 sliced_threads=0 nr=0 decimate=1 interlaced=0 bluray_compat=0 constrained_intra=0 bframes=8 b_pyramid=2 b_adapt=2 b_bias=0 direct=3 weightb=1 open_gop=0 weightp=2 keyint=250 keyint_min=25 scenecut=40 intra_refresh=0 rc_lookahead=60 rc=abr mbtree=1 bitrate=3000 ratetol=1.0 qcomp=0.60 qpmin=0 qpmax=69 qpstep=4 ip_ratio=1.40 aq=1:1.00
Output #0, matroska, to 'Output/x264/encoded/crowd_run_2160p50veryslow3000k.mkv':
  Metadata:
    encoder         : Lavf57.57.100
    Stream #0:0: Video: h264 (libx264) (H264 / 0x34363248), yuv420p, 3840x2160 [SAR 1:1 DAR 16:9], q=-1--1, 3000 kb/s, 50 fps, 1k tbn, 50 tbc
    Metadata:
      encoder         : Lavc57.66.101 libx264
    Side data:
      cpb: bitrate max/min/avg: 0/0/3000000 buffer size: 0 vbv_delay: -1
Stream mapping:
  Stream #0:0 -> #0:0 (rawvideo (native) -> h264 (libx264))
Press [q] to stop, [?] for help
frame=   16 fps=0.0 q=0.0 size=       0kB time=00:00:00.00 bitrate=N/A speed=   0x    frame=   27 fps= 19 q=0.0 size=       0kB time=00:00:00.00 bitrate=N/A speed=   0x    frame=   39 fps= 20 q=0.0 size=       0kB time=00:00:00.00 bitrate=N/A speed=   0x    frame=   49 fps= 19 q=0.0 size=       0kB time=00:00:00.00 bitrate=N/A speed=   0x    frame=   56 fps= 17 q=0.0 size=       0kB time=00:00:00.00 bitrate=N/A speed=   0x    frame=   65 fps= 17 q=0.0 size=       0kB time=00:00:00.00 bitrate=N/A speed=   0x    frame=   72 fps=6.4 q=0.0 size=       0kB time=00:00:00.00 bitrate=N/A speed=   0x    frame=   77 fps=6.3 q=52.0 size=       1kB time=-00:00:00.01 bitrate=N/A speed=N/A    frame=   78 fps=5.9 q=48.0 size=       1kB time=00:00:00.00 bitrate=5888.0kbits/s speed=7.56e-05x    frame=   82 fps=5.6 q=56.0 size=       1kB time=00:00:00.08 bitrate=  72.7kbits/s speed=0.00553x    frame=   86 fps=5.2 q=60.0 size=       1kB time=00:00:00.16 bitrate=  36.6kbits/s speed=0.00982x    frame=   90 fps=5.0 q=60.0 size=       1kB time=00:00:00.24 bitrate=  24.4kbits/s speed=0.0133x    frame=   94 fps=4.8 q=60.0 size=       1kB time=00:00:00.32 bitrate=  18.3kbits/s speed=0.0163x    frame=   97 fps=4.7 q=60.0 size=       1kB time=00:00:00.38 bitrate=  15.5kbits/s speed=0.0186x    frame=   98 fps=4.6 q=60.0 size=       1kB time=00:00:00.40 bitrate=  14.7kbits/s speed=0.0189x    frame=   99 fps=4.4 q=60.0 size=       1kB time=00:00:00.42 bitrate=  14.0kbits/s speed=0.0188x    frame=  101 fps=4.3 q=60.0 size=       1kB time=00:00:00.46 bitrate=  12.8kbits/s speed=0.0197x    frame=  103 fps=4.0 q=60.0 size=       1kB time=00:00:00.50 bitrate=  11.8kbits/s speed=0.0197x    frame=  104 fps=4.0 q=60.0 size=       1kB time=00:00:00.52 bitrate=  11.3kbits/s speed=0.02x    frame=  106 fps=4.0 q=59.0 size=       1kB time=00:00:00.56 bitrate=  10.5kbits/s speed=0.0211x    frame=  107 fps=3.9 q=59.0 size=       1kB time=00:00:00.58 bitrate=  10.1kbits/s speed=0.0211x    frame=  108 fps=3.8 q=59.0 size=       1kB time=00:00:00.60 bitrate=   9.8kbits/s speed=0.0213x    frame=  110 fps=3.7 q=59.0 size=       1kB time=00:00:00.64 bitrate=   9.2kbits/s speed=0.0218x    frame=  111 fps=3.6 q=59.0 size=       1kB time=00:00:00.66 bitrate=   8.9kbits/s speed=0.0217x    frame=  113 fps=3.6 q=59.0 size=       1kB time=00:00:00.70 bitrate=   8.4kbits/s speed=0.0225x    frame=  114 fps=3.6 q=59.0 size=       1kB time=00:00:00.72 bitrate=   8.2kbits/s speed=0.0225x    frame=  115 fps=3.5 q=59.0 size=       1kB time=00:00:00.74 bitrate=   7.9kbits/s speed=0.0224x    frame=  117 fps=3.4 q=59.0 size=       1kB time=00:00:00.78 bitrate=   7.5kbits/s speed=0.023x    frame=  118 fps=3.4 q=59.0 size=       1kB time=00:00:00.80 bitrate=   7.4kbits/s speed=0.0232x    frame=  120 fps=3.3 q=59.0 size=       1kB time=00:00:00.84 bitrate=   7.0kbits/s speed=0.0233x    frame=  121 fps=3.3 q=59.0 size=       1kB time=00:00:00.86 bitrate=   6.8kbits/s speed=0.0232x    frame=  124 fps=3.2 q=59.0 size=       1kB time=00:00:00.92 bitrate=   6.4kbits/s speed=0.024x    frame=  125 fps=3.2 q=59.0 size=       1kB time=00:00:00.94 bitrate=   6.3kbits/s speed=0.024x    frame=  127 fps=3.1 q=59.0 size=       1kB time=00:00:00.98 bitrate=   6.0kbits/s speed=0.0242x    frame=  128 fps=3.1 q=59.0 size=       1kB time=00:00:01.00 bitrate=   5.9kbits/s speed=0.0239x    frame=  129 fps=3.0 q=59.0 size=       1kB time=00:00:01.02 bitrate=   5.8kbits/s speed=0.0241x    frame=  132 fps=3.1 q=58.0 size=       1kB time=00:00:01.08 bitrate=   5.4kbits/s speed=0.0251x    frame=  133 fps=3.1 q=59.0 size=       1kB time=00:00:01.10 bitrate=   5.3kbits/s speed=0.0253x    frame=  134 fps=2.9 q=58.0 size=       1kB time=00:00:01.12 bitrate=   5.3kbits/s speed=0.0245x    frame=  136 fps=2.9 q=58.0 size=       1kB time=00:00:01.16 bitrate=   5.1kbits/s speed=0.025x    frame=  138 fps=2.9 q=58.0 size=       1kB time=00:00:01.20 bitrate=   4.9kbits/s speed=0.0253x    frame=  140 fps=2.9 q=58.0 size=       1kB time=00:00:01.24 bitrate=   4.7kbits/s speed=0.0255x    frame=  141 fps=2.8 q=58.0 size=       1kB time=00:00:01.26 bitrate=   4.7kbits/s speed=0.0253x    frame=  142 fps=2.8 q=58.0 size=       1kB time=00:00:01.28 bitrate=   4.6kbits/s speed=0.0253x    frame=  144 fps=2.8 q=58.0 size=       1kB time=00:00:01.32 bitrate=   4.5kbits/s speed=0.0258x    frame=  145 fps=2.8 q=58.0 size=       1kB time=00:00:01.34 bitrate=   4.4kbits/s speed=0.0258x    frame=  146 fps=2.8 q=58.0 size=       1kB time=00:00:01.36 bitrate=   4.3kbits/s speed=0.0256x    frame=  147 fps=2.7 q=58.0 size=       1kB time=00:00:01.38 bitrate=   4.3kbits/s speed=0.0256x    frame=  148 fps=2.7 q=58.0 size=       1kB time=00:00:01.40 bitrate=   4.2kbits/s speed=0.0257x    frame=  149 fps=2.7 q=58.0 size=       1kB time=00:00:01.42 bitrate=   4.1kbits/s speed=0.0258x    frame=  150 fps=2.7 q=58.0 size=       1kB time=00:00:01.44 bitrate=   4.1kbits/s speed=0.0259x    frame=  151 fps=2.6 q=58.0 size=       1kB time=00:00:01.46 bitrate=   4.0kbits/s speed=0.0255x    frame=  153 fps=2.6 q=58.0 size=       1kB time=00:00:01.50 bitrate=   3.9kbits/s speed=0.026x    frame=  155 fps=2.6 q=58.0 size=       1kB time=00:00:01.54 bitrate=   3.8kbits/s speed=0.0262x    frame=  156 fps=2.6 q=58.0 size=       1kB time=00:00:01.56 bitrate=   3.8kbits/s speed=0.0262x    frame=  157 fps=2.6 q=58.0 size=       1kB time=00:00:01.58 bitrate=   3.7kbits/s speed=0.0259x    frame=  158 fps=2.6 q=58.0 size=       1kB time=00:00:01.60 bitrate=   3.7kbits/s speed=0.026x    frame=  161 fps=2.5 q=58.0 size=       1kB time=00:00:01.66 bitrate=   3.5kbits/s speed=0.0262x    frame=  163 fps=2.5 q=58.0 size=       1kB time=00:00:01.70 bitrate=   3.5kbits/s speed=0.0262x    frame=  165 fps=2.5 q=58.0 size=       1kB time=00:00:01.74 bitrate=   3.4kbits/s speed=0.0266x    frame=  167 fps=2.5 q=57.0 size=       1kB time=00:00:01.78 bitrate=   3.3kbits/s speed=0.0268x    frame=  168 fps=2.5 q=58.0 size=       1kB time=00:00:01.80 bitrate=   3.3kbits/s speed=0.0266x    frame=  169 fps=2.4 q=58.0 size=       1kB time=00:00:01.82 bitrate=   3.2kbits/s speed=0.0263x    frame=  172 fps=2.4 q=57.0 size=       1kB time=00:00:01.88 bitrate=   3.1kbits/s speed=0.0266x    frame=  173 fps=2.4 q=57.0 size=       1kB time=00:00:01.90 bitrate=   3.1kbits/s speed=0.0266x    frame=  175 fps=2.4 q=57.0 size=       1kB time=00:00:01.94 bitrate=   3.0kbits/s speed=0.0267x    frame=  178 fps=2.4 q=57.0 size=       1kB time=00:00:02.00 bitrate=   2.9kbits/s speed=0.027x    frame=  179 fps=2.4 q=57.0 size=       1kB time=00:00:02.02 bitrate=   2.9kbits/s speed=0.0267x    frame=  182 fps=2.4 q=57.0 size=       1kB time=00:00:02.08 bitrate=   2.8kbits/s speed=0.0271x    frame=  183 fps=2.3 q=57.0 size=       1kB time=00:00:02.10 bitrate=   2.8kbits/s speed=0.0268x    frame=  185 fps=2.3 q=57.0 size=       1kB time=00:00:02.14 bitrate=   2.8kbits/s speed=0.0271x    frame=  186 fps=2.3 q=57.0 size=       1kB time=00:00:02.16 bitrate=   2.7kbits/s speed=0.027x    frame=  187 fps=2.3 q=57.0 size=       1kB time=00:00:02.18 bitrate=   2.7kbits/s speed=0.0268x    frame=  189 fps=2.3 q=57.0 size=       1kB time=00:00:02.22 bitrate=   2.7kbits/s speed=0.0271x    frame=  191 fps=2.3 q=57.0 size=       1kB time=00:00:02.26 bitrate=   2.6kbits/s speed=0.0271x    frame=  192 fps=2.3 q=57.0 size=       1kB time=00:00:02.28 bitrate=   2.6kbits/s speed=0.0269x    frame=  194 fps=2.3 q=57.0 size=       1kB time=00:00:02.32 bitrate=   2.5kbits/s speed=0.0271x    frame=  197 fps=2.2 q=57.0 size=       1kB time=00:00:02.38 bitrate=   2.5kbits/s speed=0.0271x    frame=  199 fps=2.2 q=57.0 size=       1kB time=00:00:02.42 bitrate=   2.4kbits/s speed=0.0271x    frame=  203 fps=2.2 q=57.0 size=       1kB time=00:00:02.50 bitrate=   2.4kbits/s speed=0.0276x    frame=  204 fps=2.2 q=57.0 size=       1kB time=00:00:02.52 bitrate=   2.3kbits/s speed=0.0274x    frame=  205 fps=2.2 q=57.0 size=       1kB time=00:00:02.54 bitrate=   2.3kbits/s speed=0.0273x    frame=  206 fps=2.2 q=57.0 size=       1kB time=00:00:02.56 bitrate=   2.3kbits/s speed=0.0272x    frame=  207 fps=2.2 q=57.0 size=       1kB time=00:00:02.58 bitrate=   2.3kbits/s speed=0.0273x    frame=  210 fps=2.2 q=57.0 size=       1kB time=00:00:02.64 bitrate=   2.2kbits/s speed=0.0275x    frame=  211 fps=2.2 q=57.0 size=       1kB time=00:00:02.66 bitrate=   2.2kbits/s speed=0.0273x    frame=  214 fps=2.2 q=57.0 size=       1kB time=00:00:02.72 bitrate=   2.2kbits/s speed=0.0275x    frame=  215 fps=2.2 q=57.0 size=       1kB time=00:00:02.74 bitrate=   2.1kbits/s speed=0.0274x    frame=  217 fps=2.1 q=57.0 size=       1kB time=00:00:02.78 bitrate=   2.1kbits/s speed=0.0274x    frame=  219 fps=2.1 q=57.0 size=       1kB time=00:00:02.82 bitrate=   2.1kbits/s speed=0.0277x    frame=  220 fps=2.1 q=57.0 size=       1kB time=00:00:02.84 bitrate=   2.1kbits/s speed=0.0272x    frame=  223 fps=2.1 q=57.0 size=       1kB time=00:00:02.90 bitrate=   2.0kbits/s speed=0.0276x    frame=  225 fps=2.1 q=57.0 size=       1kB time=00:00:02.94 bitrate=   2.0kbits/s speed=0.0277x    frame=  226 fps=2.1 q=57.0 size=       1kB time=00:00:02.96 bitrate=   2.0kbits/s speed=0.0274x    frame=  227 fps=2.1 q=57.0 size=       1kB time=00:00:02.98 bitrate=   2.0kbits/s speed=0.0274x    frame=  230 fps=2.1 q=57.0 size=       1kB time=00:00:03.04 bitrate=   1.9kbits/s speed=0.0276x    frame=  232 fps=2.1 q=57.0 size=       1kB time=00:00:03.08 bitrate=   1.9kbits/s speed=0.0277x    frame=  233 fps=2.1 q=57.0 size=       1kB time=00:00:03.10 bitrate=   1.9kbits/s speed=0.0276x    frame=  235 fps=2.1 q=57.0 size=       1kB time=00:00:03.14 bitrate=   1.9kbits/s speed=0.0275x    frame=  237 fps=2.1 q=57.0 size=       1kB time=00:00:03.18 bitrate=   1.9kbits/s speed=0.0276x    frame=  239 fps=2.0 q=57.0 size=       1kB time=00:00:03.22 bitrate=   1.8kbits/s speed=0.0275x    frame=  240 fps=2.0 q=57.0 size=       1kB time=00:00:03.24 bitrate=   1.8kbits/s speed=0.0275x    frame=  243 fps=2.0 q=57.0 size=       1kB time=00:00:03.30 bitrate=   1.8kbits/s speed=0.0277x    frame=  245 fps=2.0 q=57.0 size=       1kB time=00:00:03.34 bitrate=   1.8kbits/s speed=0.0276x    frame=  246 fps=2.0 q=57.0 size=       1kB time=00:00:03.36 bitrate=   1.8kbits/s speed=0.0274x    frame=  250 fps=2.0 q=57.0 size=       1kB time=00:00:03.44 bitrate=   1.7kbits/s speed=0.0279x    frame=  251 fps=2.0 q=56.0 size=       1kB time=00:00:03.46 bitrate=   1.7kbits/s speed=0.0274x    frame=  254 fps=2.0 q=56.0 size=       1kB time=00:00:03.52 bitrate=   1.7kbits/s speed=0.0278x    frame=  257 fps=2.0 q=56.0 size=       1kB time=00:00:03.58 bitrate=   1.6kbits/s speed=0.0276x    frame=  260 fps=2.0 q=56.0 size=       1kB time=00:00:03.64 bitrate=   1.6kbits/s speed=0.0279x    frame=  261 fps=2.0 q=56.0 size=       1kB time=00:00:03.66 bitrate=   1.6kbits/s speed=0.0278x    frame=  263 fps=2.0 q=56.0 size=       1kB time=00:00:03.70 bitrate=   1.6kbits/s speed=0.0278x    frame=  264 fps=2.0 q=56.0 size=       1kB time=00:00:03.72 bitrate=   1.6kbits/s speed=0.0277x    frame=  265 fps=2.0 q=56.0 size=       1kB time=00:00:03.74 bitrate=   1.6kbits/s speed=0.0277x    frame=  268 fps=2.0 q=56.0 size=       1kB time=00:00:03.80 bitrate=   1.5kbits/s speed=0.0279x    frame=  269 fps=2.0 q=56.0 size=       1kB time=00:00:03.82 bitrate=   1.5kbits/s speed=0.0278x    frame=  270 fps=2.0 q=56.0 size=       1kB time=00:00:03.84 bitrate=   1.5kbits/s speed=0.0278x    frame=  271 fps=1.9 q=56.0 size=       1kB time=00:00:03.86 bitrate=   1.5kbits/s speed=0.0277x    frame=  274 fps=1.9 q=56.0 size=       1kB time=00:00:03.92 bitrate=   1.5kbits/s speed=0.0278x    frame=  277 fps=1.9 q=56.0 size=       1kB time=00:00:03.98 bitrate=   1.5kbits/s speed=0.0277x    frame=  279 fps=1.9 q=56.0 size=       1kB time=00:00:04.02 bitrate=   1.5kbits/s speed=0.0279x    frame=  280 fps=1.9 q=56.0 size=       1kB time=00:00:04.04 bitrate=   1.5kbits/s speed=0.0279x    frame=  281 fps=1.9 q=56.0 size=       1kB time=00:00:04.06 bitrate=   1.4kbits/s speed=0.0279x    frame=  283 fps=1.9 q=56.0 size=       1kB time=00:00:04.10 bitrate=   1.4kbits/s speed=0.0278x    frame=  285 fps=1.9 q=56.0 size=       1kB time=00:00:04.14 bitrate=   1.4kbits/s speed=0.0279x    frame=  286 fps=1.9 q=56.0 size=       1kB time=00:00:04.16 bitrate=   1.4kbits/s speed=0.0279x    frame=  287 fps=1.9 q=56.0 size=       1kB time=00:00:04.18 bitrate=   1.4kbits/s speed=0.0279x    frame=  289 fps=1.9 q=56.0 size=       1kB time=00:00:04.22 bitrate=   1.4kbits/s speed=0.0279x    frame=  290 fps=1.9 q=56.0 size=       1kB time=00:00:04.24 bitrate=   1.4kbits/s speed=0.0278x    frame=  291 fps=1.9 q=56.0 size=       1kB time=00:00:04.26 bitrate=   1.4kbits/s speed=0.0278x    frame=  294 fps=1.9 q=56.0 size=       1kB time=00:00:04.32 bitrate=   1.4kbits/s speed=0.028x    frame=  295 fps=1.9 q=56.0 size=       1kB time=00:00:04.34 bitrate=   1.4kbits/s speed=0.0279x    frame=  297 fps=1.9 q=56.0 size=       1kB time=00:00:04.38 bitrate=   1.3kbits/s speed=0.0278x    frame=  299 fps=1.9 q=56.0 size=       1kB time=00:00:04.42 bitrate=   1.3kbits/s speed=0.0279x    frame=  300 fps=1.9 q=56.0 size=       1kB time=00:00:04.44 bitrate=   1.3kbits/s speed=0.0279x    frame=  301 fps=1.9 q=56.0 size=       1kB time=00:00:04.46 bitrate=   1.3kbits/s speed=0.028x    frame=  303 fps=1.9 q=56.0 size=       1kB time=00:00:04.50 bitrate=   1.3kbits/s speed=0.0279x    frame=  304 fps=1.9 q=56.0 size=       1kB time=00:00:04.52 bitrate=   1.3kbits/s speed=0.0279x    frame=  305 fps=1.9 q=56.0 size=       1kB time=00:00:04.54 bitrate=   1.3kbits/s speed=0.0279x    frame=  307 fps=1.9 q=56.0 size=       1kB time=00:00:04.58 bitrate=   1.3kbits/s speed=0.0279x    frame=  308 fps=1.9 q=56.0 size=       1kB time=00:00:04.60 bitrate=   1.3kbits/s speed=0.0279x    frame=  309 fps=1.9 q=56.0 size=       1kB time=00:00:04.62 bitrate=   1.3kbits/s speed=0.0279x    frame=  311 fps=1.9 q=56.0 size=       1kB time=00:00:04.66 bitrate=   1.3kbits/s speed=0.0279x    frame=  312 fps=1.9 q=56.0 size=       1kB time=00:00:04.68 bitrate=   1.3kbits/s speed=0.0278x    frame=  313 fps=1.9 q=56.0 size=       1kB time=00:00:04.70 bitrate=   1.3kbits/s speed=0.0278x    frame=  314 fps=1.9 q=56.0 size=       1kB time=00:00:04.72 bitrate=   1.2kbits/s speed=0.0278x    frame=  316 fps=1.9 q=56.0 size=       1kB time=00:00:04.76 bitrate=   1.2kbits/s speed=0.028x    frame=  318 fps=1.9 q=56.0 size=       1kB time=00:00:04.80 bitrate=   1.2kbits/s speed=0.0281x    frame=  319 fps=1.8 q=56.0 size=       1kB time=00:00:04.82 bitrate=   1.2kbits/s speed=0.0279x    frame=  320 fps=1.8 q=56.0 size=       1kB time=00:00:04.84 bitrate=   1.2kbits/s speed=0.0278x    frame=  322 fps=1.8 q=57.0 size=       1kB time=00:00:04.88 bitrate=   1.2kbits/s speed=0.028x    frame=  324 fps=1.8 q=57.0 size=       1kB time=00:00:04.92 bitrate=   1.2kbits/s speed=0.0281x    frame=  325 fps=1.8 q=57.0 size=       1kB time=00:00:04.94 bitrate=   1.2kbits/s speed=0.028x    frame=  327 fps=1.9 q=57.0 size=    1864kB time=00:00:04.98 bitrate=3065.2kbits/s speed=0.0282x    frame=  332 fps=1.9 q=57.0 size=    1864kB time=00:00:05.08 bitrate=3004.9kbits/s speed=0.0286x    frame=  335 fps=1.9 q=57.0 size=    1864kB time=00:00:05.14 bitrate=2969.8kbits/s speed=0.0288x    frame=  336 fps=1.9 q=57.0 size=    1864kB time=00:00:05.16 bitrate=2958.3kbits/s speed=0.0289x    frame=  338 fps=1.9 q=57.0 size=    1864kB time=00:00:05.20 bitrate=2935.6kbits/s speed=0.029x    frame=  339 fps=1.9 q=57.0 size=    1864kB time=00:00:05.22 bitrate=2924.3kbits/s speed=0.029x    frame=  341 fps=1.9 q=57.0 size=    1864kB time=00:00:05.26 bitrate=2902.1kbits/s speed=0.0291x    frame=  342 fps=1.9 q=57.0 size=    1864kB time=00:00:05.28 bitrate=2891.1kbits/s speed=0.0291x    frame=  344 fps=1.9 q=57.0 size=    1864kB time=00:00:05.32 bitrate=2869.4kbits/s speed=0.0292x    frame=  345 fps=1.9 q=57.0 size=    1864kB time=00:00:05.34 bitrate=2858.6kbits/s speed=0.0292x    frame=  346 fps=1.9 q=57.0 size=    1864kB time=00:00:05.36 bitrate=2848.0kbits/s speed=0.0292x    frame=  347 fps=1.9 q=57.0 size=    1864kB time=00:00:05.38 bitrate=2837.4kbits/s speed=0.0292x    frame=  349 fps=1.9 q=57.0 size=    1864kB time=00:00:05.42 bitrate=2816.5kbits/s speed=0.0292x    frame=  350 fps=1.9 q=57.0 size=    1864kB time=00:00:05.44 bitrate=2806.1kbits/s speed=0.0292x    frame=  352 fps=1.9 q=57.0 size=    1864kB time=00:00:05.48 bitrate=2785.6kbits/s speed=0.0292x    frame=  353 fps=1.9 q=57.0 size=    1864kB time=00:00:05.50 bitrate=2775.5kbits/s speed=0.0292x    frame=  354 fps=1.9 q=57.0 size=    1864kB time=00:00:05.52 bitrate=2765.4kbits/s speed=0.0292x    frame=  355 fps=1.9 q=57.0 size=    1864kB time=00:00:05.54 bitrate=2755.5kbits/s speed=0.0292x    frame=  356 fps=1.9 q=57.0 size=    1864kB time=00:00:05.56 bitrate=2745.5kbits/s speed=0.0292x    frame=  357 fps=1.9 q=57.0 size=    1864kB time=00:00:05.58 bitrate=2735.7kbits/s speed=0.0291x    frame=  358 fps=1.9 q=57.0 size=    1864kB time=00:00:05.60 bitrate=2725.9kbits/s speed=0.0291x    frame=  359 fps=1.9 q=57.0 size=    1864kB time=00:00:05.62 bitrate=2716.2kbits/s speed=0.0291x    frame=  361 fps=1.9 q=57.0 size=    1864kB time=00:00:05.66 bitrate=2697.0kbits/s speed=0.0293x    frame=  362 fps=1.9 q=57.0 size=    1864kB time=00:00:05.68 bitrate=2687.6kbits/s speed=0.0291x    frame=  364 fps=1.9 q=57.0 size=    1864kB time=00:00:05.72 bitrate=2668.8kbits/s speed=0.0292x    frame=  365 fps=1.9 q=57.0 size=    1864kB time=00:00:05.74 bitrate=2659.5kbits/s speed=0.0291x    frame=  367 fps=1.9 q=57.0 size=    1864kB time=00:00:05.78 bitrate=2641.1kbits/s speed=0.0292x    frame=  369 fps=1.8 q=57.0 size=    1864kB time=00:00:05.82 bitrate=2622.9kbits/s speed=0.0291x    frame=  370 fps=1.8 q=57.0 size=    1864kB time=00:00:05.84 bitrate=2613.9kbits/s speed=0.0291x    frame=  372 fps=1.8 q=57.0 size=    1864kB time=00:00:05.88 bitrate=2596.2kbits/s speed=0.0292x    frame=  373 fps=1.8 q=57.0 size=    1864kB time=00:00:05.90 bitrate=2587.4kbits/s speed=0.0292x    frame=  374 fps=1.8 q=57.0 size=    1864kB time=00:00:05.92 bitrate=2578.6kbits/s speed=0.0291x    frame=  375 fps=1.8 q=57.0 size=    1864kB time=00:00:05.94 bitrate=2569.9kbits/s speed=0.0292x    frame=  376 fps=1.8 q=57.0 size=    1864kB time=00:00:05.96 bitrate=2561.3kbits/s speed=0.0291x    frame=  377 fps=1.8 q=57.0 size=    1864kB time=00:00:05.98 bitrate=2552.7kbits/s speed=0.0291x    frame=  379 fps=1.8 q=57.0 size=    1864kB time=00:00:06.02 bitrate=2535.8kbits/s speed=0.0291x    frame=  381 fps=1.8 q=57.0 size=    1864kB time=00:00:06.06 bitrate=2519.1kbits/s speed=0.0292x    frame=  382 fps=1.8 q=57.0 size=    1864kB time=00:00:06.08 bitrate=2510.8kbits/s speed=0.0292x    frame=  383 fps=1.8 q=57.0 size=    1864kB time=00:00:06.10 bitrate=2502.5kbits/s speed=0.029x    frame=  384 fps=1.8 q=57.0 size=    1864kB time=00:00:06.12 bitrate=2494.4kbits/s speed=0.029x    frame=  387 fps=1.8 q=57.0 size=    1864kB time=00:00:06.18 bitrate=2470.1kbits/s speed=0.0292x    frame=  388 fps=1.8 q=57.0 size=    1864kB time=00:00:06.20 bitrate=2462.2kbits/s speed=0.0292x    frame=  389 fps=1.8 q=57.0 size=    1864kB time=00:00:06.22 bitrate=2454.3kbits/s speed=0.029x    frame=  391 fps=1.8 q=57.0 size=    1864kB time=00:00:06.26 bitrate=2438.6kbits/s speed=0.029x    frame=  394 fps=1.8 q=57.0 size=    1864kB time=00:00:06.32 bitrate=2415.4kbits/s speed=0.0291x    frame=  395 fps=1.8 q=57.0 size=    1864kB time=00:00:06.34 bitrate=2407.8kbits/s speed=0.0289x    frame=  397 fps=1.8 q=57.0 size=    1864kB time=00:00:06.38 bitrate=2392.7kbits/s speed=0.029x    frame=  398 fps=1.8 q=57.0 size=    1864kB time=00:00:06.40 bitrate=2385.3kbits/s speed=0.029x    frame=  399 fps=1.8 q=57.0 size=    1864kB time=00:00:06.42 bitrate=2377.8kbits/s speed=0.0289x    frame=  401 fps=1.8 q=57.0 size=    1864kB time=00:00:06.46 bitrate=2363.1kbits/s speed=0.0289x    frame=  403 fps=1.8 q=57.0 size=    1864kB time=00:00:06.50 bitrate=2348.6kbits/s speed=0.0289x    frame=  405 fps=1.8 q=57.0 size=    1864kB time=00:00:06.54 bitrate=2334.2kbits/s speed=0.0289x    frame=  406 fps=1.8 q=57.0 size=    1864kB time=00:00:06.56 bitrate=2327.1kbits/s speed=0.0289x    frame=  407 fps=1.8 q=57.0 size=    1864kB time=00:00:06.58 bitrate=2320.0kbits/s speed=0.0288x    frame=  408 fps=1.8 q=57.0 size=    1864kB time=00:00:06.60 bitrate=2313.0kbits/s speed=0.0288x    frame=  411 fps=1.8 q=57.0 size=    1864kB time=00:00:06.66 bitrate=2292.1kbits/s speed=0.0289x    frame=  412 fps=1.8 q=57.0 size=    1864kB time=00:00:06.68 bitrate=2285.3kbits/s speed=0.0288x    frame=  413 fps=1.8 q=57.0 size=    1864kB time=00:00:06.70 bitrate=2278.5kbits/s speed=0.0288x    frame=  415 fps=1.8 q=57.0 size=    1864kB time=00:00:06.74 bitrate=2264.9kbits/s speed=0.0289x    frame=  416 fps=1.8 q=57.0 size=    1864kB time=00:00:06.76 bitrate=2258.2kbits/s speed=0.0288x    frame=  417 fps=1.8 q=57.0 size=    1864kB time=00:00:06.78 bitrate=2251.6kbits/s speed=0.0288x    frame=  419 fps=1.8 q=57.0 size=    1864kB time=00:00:06.82 bitrate=2238.4kbits/s speed=0.0288x    frame=  421 fps=1.8 q=57.0 size=    1864kB time=00:00:06.86 bitrate=2225.3kbits/s speed=0.0288x    frame=  422 fps=1.8 q=57.0 size=    1864kB time=00:00:06.88 bitrate=2218.9kbits/s speed=0.0288x    frame=  424 fps=1.8 q=57.0 size=    1864kB time=00:00:06.92 bitrate=2206.0kbits/s speed=0.0289x    frame=  425 fps=1.8 q=57.0 size=    1864kB time=00:00:06.94 bitrate=2199.7kbits/s speed=0.0287x    frame=  428 fps=1.8 q=57.0 size=    1864kB time=00:00:07.00 bitrate=2180.8kbits/s speed=0.0288x    frame=  429 fps=1.8 q=57.0 size=    1864kB time=00:00:07.02 bitrate=2174.6kbits/s speed=0.0288x    frame=  430 fps=1.8 q=57.0 size=    1864kB time=00:00:07.04 bitrate=2168.4kbits/s speed=0.0288x    frame=  431 fps=1.8 q=57.0 size=    1864kB time=00:00:07.06 bitrate=2162.3kbits/s speed=0.0288x    frame=  432 fps=1.8 q=57.0 size=    1864kB time=00:00:07.08 bitrate=2156.2kbits/s speed=0.0288x    frame=  433 fps=1.8 q=57.0 size=    1864kB time=00:00:07.10 bitrate=2150.1kbits/s speed=0.0287x    frame=  434 fps=1.7 q=57.0 size=    1864kB time=00:00:07.12 bitrate=2144.1kbits/s speed=0.0287x    frame=  435 fps=1.7 q=57.0 size=    1864kB time=00:00:07.14 bitrate=2138.1kbits/s speed=0.0287x    frame=  437 fps=1.7 q=57.0 size=    1864kB time=00:00:07.18 bitrate=2126.2kbits/s speed=0.0287x    frame=  438 fps=1.7 q=57.0 size=    1864kB time=00:00:07.20 bitrate=2120.3kbits/s speed=0.0287x    frame=  439 fps=1.7 q=57.0 size=    1864kB time=00:00:07.22 bitrate=2114.4kbits/s speed=0.0288x    frame=  440 fps=1.7 q=57.0 size=    1864kB time=00:00:07.24 bitrate=2108.5kbits/s speed=0.0287x    frame=  441 fps=1.7 q=57.0 size=    1864kB time=00:00:07.26 bitrate=2102.7kbits/s speed=0.0287x    frame=  442 fps=1.7 q=57.0 size=    1864kB time=00:00:07.28 bitrate=2097.0kbits/s speed=0.0287x    frame=  443 fps=1.7 q=57.0 size=    1864kB time=00:00:07.30 bitrate=2091.2kbits/s speed=0.0287x    frame=  446 fps=1.7 q=57.0 size=    1864kB time=00:00:07.36 bitrate=2074.2kbits/s speed=0.0286x    frame=  447 fps=1.7 q=57.0 size=    1864kB time=00:00:07.38 bitrate=2068.6kbits/s speed=0.0287x    frame=  448 fps=1.7 q=57.0 size=    1864kB time=00:00:07.40 bitrate=2063.0kbits/s speed=0.0286x    frame=  450 fps=1.7 q=57.0 size=    1864kB time=00:00:07.44 bitrate=2051.9kbits/s speed=0.0287x    frame=  452 fps=1.7 q=57.0 size=    1864kB time=00:00:07.48 bitrate=2040.9kbits/s speed=0.0287x    frame=  453 fps=1.7 q=57.0 size=    1864kB time=00:00:07.50 bitrate=2035.5kbits/s speed=0.0287x    frame=  454 fps=1.7 q=57.0 size=    1864kB time=00:00:07.52 bitrate=2030.0kbits/s speed=0.0285x    frame=  456 fps=1.7 q=57.0 size=    1864kB time=00:00:07.56 bitrate=2019.3kbits/s speed=0.0286x    frame=  457 fps=1.7 q=57.0 size=    1864kB time=00:00:07.58 bitrate=2014.0kbits/s speed=0.0286x    frame=  458 fps=1.7 q=57.0 size=    1864kB time=00:00:07.60 bitrate=2008.7kbits/s speed=0.0286x    frame=  459 fps=1.7 q=57.0 size=    1864kB time=00:00:07.62 bitrate=2003.4kbits/s speed=0.0286x    frame=  460 fps=1.7 q=57.0 size=    1864kB time=00:00:07.64 bitrate=1998.2kbits/s speed=0.0286x    frame=  461 fps=1.7 q=57.0 size=    1864kB time=00:00:07.66 bitrate=1993.0kbits/s speed=0.0286x    frame=  462 fps=1.7 q=57.0 size=    1864kB time=00:00:07.68 bitrate=1987.8kbits/s speed=0.0286x    frame=  463 fps=1.7 q=57.0 size=    1864kB time=00:00:07.70 bitrate=1982.6kbits/s speed=0.0286x    frame=  466 fps=1.7 q=57.0 size=    1864kB time=00:00:07.76 bitrate=1967.3kbits/s speed=0.0286x    frame=  467 fps=1.7 q=57.0 size=    1864kB time=00:00:07.78 bitrate=1962.2kbits/s speed=0.0286x    frame=  468 fps=1.7 q=57.0 size=    1864kB time=00:00:07.80 bitrate=1957.2kbits/s speed=0.0285x    frame=  469 fps=1.7 q=57.0 size=    1864kB time=00:00:07.82 bitrate=1952.2kbits/s speed=0.0285x    frame=  471 fps=1.7 q=57.0 size=    1864kB time=00:00:07.86 bitrate=1942.2kbits/s speed=0.0285x    frame=  473 fps=1.7 q=57.0 size=    1864kB time=00:00:07.90 bitrate=1932.4kbits/s speed=0.0286x    frame=  474 fps=1.7 q=57.0 size=    1864kB time=00:00:07.92 bitrate=1927.5kbits/s speed=0.0284x    frame=  476 fps=1.7 q=57.0 size=    1864kB time=00:00:07.96 bitrate=1917.8kbits/s speed=0.0284x    frame=  479 fps=1.7 q=57.0 size=    1864kB time=00:00:08.02 bitrate=1903.5kbits/s speed=0.0284x    frame=  480 fps=1.7 q=57.0 size=    1864kB time=00:00:08.04 bitrate=1898.8kbits/s speed=0.0284x    frame=  482 fps=1.7 q=57.0 size=    1864kB time=00:00:08.08 bitrate=1889.4kbits/s speed=0.0284x    frame=  483 fps=1.7 q=57.0 size=    1864kB time=00:00:08.10 bitrate=1884.7kbits/s speed=0.0284x    frame=  484 fps=1.7 q=57.0 size=    1864kB time=00:00:08.12 bitrate=1880.1kbits/s speed=0.0284x    frame=  486 fps=1.7 q=57.0 size=    1864kB time=00:00:08.16 bitrate=1870.8kbits/s speed=0.0285x    frame=  487 fps=1.7 q=57.0 size=    1864kB time=00:00:08.18 bitrate=1866.3kbits/s speed=0.0283x    frame=  490 fps=1.7 q=57.0 size=    1864kB time=00:00:08.24 bitrate=1852.7kbits/s speed=0.0284x    frame=  491 fps=1.7 q=57.0 size=    1864kB time=00:00:08.26 bitrate=1848.2kbits/s speed=0.0284x    frame=  493 fps=1.7 q=57.0 size=    1864kB time=00:00:08.30 bitrate=1839.3kbits/s speed=0.0284x    frame=  494 fps=1.7 q=57.0 size=    1864kB time=00:00:08.32 bitrate=1834.9kbits/s speed=0.0283x    frame=  495 fps=1.7 q=57.0 size=    1864kB time=00:00:08.34 bitrate=1830.5kbits/s speed=0.0283x    frame=  496 fps=1.7 q=57.0 size=    1864kB time=00:00:08.36 bitrate=1826.1kbits/s speed=0.0283x    frame=  498 fps=1.7 q=57.0 size=    1864kB time=00:00:08.40 bitrate=1817.4kbits/s speed=0.0283x    frame=  499 fps=1.7 q=57.0 size=    1864kB time=00:00:08.42 bitrate=1813.1kbits/s speed=0.0282x    frame=  500 fps=1.7 q=57.0 size=    1864kB time=00:00:08.44 bitrate=1808.8kbits/s speed=0.0282x    frame=  500 fps=1.4 q=-1.0 Lsize=    3853kB time=00:00:09.94 bitrate=3174.8kbits/s speed=0.0281x    
video:3848kB audio:0kB subtitle:0kB other streams:0kB global headers:0kB muxing overhead: 0.112342%
bench: utime=1358.268s
bench: maxrss=3291852kB
[libx264 @ 0x2e601c0] frame I:2     Avg QP:45.85  size:106332
[libx264 @ 0x2e601c0] frame P:114   Avg QP:50.92  size: 18624
[libx264 @ 0x2e601c0] frame B:384   Avg QP:50.92  size:  4178
[libx264 @ 0x2e601c0] consecutive B-frames:  0.4%  0.0%  1.2% 60.0% 30.0%  8.4%  0.0%  0.0%  0.0%
[libx264 @ 0x2e601c0] mb I  I16..4: 27.6% 70.3%  2.1%
[libx264 @ 0x2e601c0] mb P  I16..4: 13.0%  7.4%  0.0%  P16..4: 17.1%  0.2%  1.4%  0.0%  0.0%    skip:60.9%
[libx264 @ 0x2e601c0] mb B  I16..4:  0.0%  0.0%  0.0%  B16..8: 13.2%  0.1%  0.0%  direct: 0.0%  skip:86.7%  L0:37.2% L1:62.7% BI: 0.1%
[libx264 @ 0x2e601c0] final ratefactor: 49.28
[libx264 @ 0x2e601c0] 8x8 transform intra:38.9% inter:97.0%
[libx264 @ 0x2e601c0] direct mvs  spatial:99.2% temporal:0.8%
[libx264 @ 0x2e601c0] coded y,uvDC,uvAC intra: 4.2% 31.6% 0.7% inter: 0.1% 1.4% 0.0%
[libx264 @ 0x2e601c0] i16 v,h,dc,p: 68% 20%  4%  8%
[libx264 @ 0x2e601c0] i8 v,h,dc,ddl,ddr,vr,hd,vl,hu:  6%  2% 78%  3%  3%  2%  2%  2%  2%
[libx264 @ 0x2e601c0] i4 v,h,dc,ddl,ddr,vr,hd,vl,hu:  6%  4%  2% 14% 15% 15% 14% 11% 17%
[libx264 @ 0x2e601c0] i8c dc,h,v,p: 86%  6%  7%  1%
[libx264 @ 0x2e601c0] Weighted P-Frames: Y:1.8% UV:0.9%
[libx264 @ 0x2e601c0] ref P L0: 47.8%  0.5% 14.7%  6.5%  5.0%  5.4%  4.7%  2.3%  2.0%  2.0%  1.7%  1.7%  1.5%  1.6%  1.7%  1.0%
[libx264 @ 0x2e601c0] ref B L0: 84.6%  4.0%  2.7%  1.2%  1.2%  1.0%  1.1%  0.5%  0.6%  0.6%  0.6%  0.5%  0.6%  0.5%  0.4%
[libx264 @ 0x2e601c0] ref B L1: 98.7%  1.3%
[libx264 @ 0x2e601c0] kb/s:3151.97
